Coordinates
version=1
nRows=6
nColumns=63
inDegrees=yes

Units are S.I. units (second, meters, Newtons, ...)
If the header above contains a line with 'inDegrees', this indicates whether rotational values are in degrees (yes) or radians (no).

endheader
time	pelvis_tilt	pelvis_list	pelvis_rotation	pelvis_tx	pelvis_ty	pelvis_tz	hip_flexion_r	hip_adduction_r	hip_rotation_r	knee_angle_r	knee_angle_r_beta	ankle_angle_r	subtalar_angle_r	mtp_angle_r	hip_flexion_l	hip_adduction_l	hip_rotation_l	knee_angle_l	knee_angle_l_beta	ankle_angle_l	subtalar_angle_l	mtp_angle_l	L5_S1_Flex_Ext	L5_S1_Lat_Bending	L5_S1_axial_rotation	L4_L5_Flex_Ext	L4_L5_Lat_Bending	L4_L5_axial_rotation	L3_L4_Flex_Ext	L3_L4_Lat_Bending	L3_L4_axial_rotation	L2_L3_Flex_Ext	L2_L3_Lat_Bending	L2_L3_axial_rotation	L1_L2_Flex_Ext	L1_L2_Lat_Bending	L1_L2_axial_rotation	L1_T12_Flex_Ext	L1_T12_Lat_Bending	L1_T12_axial_rotation	Abs_r3	Abs_r2	Abs_r1	Abs_t1	Abs_t2	neck_flexion	neck_bending	neck_rotation	arm_flex_r	arm_add_r	arm_rot_r	elbow_flex_r	pro_sup_r	wrist_flex_r	wrist_dev_r	arm_flex_l	arm_add_l	arm_rot_l	elbow_flex_l	pro_sup_l	wrist_flex_l	wrist_dev_l
0.000000	-2.061016	-4.206373	90.440757	0.199173	0.791855	0.625283	1.298336	-3.099004	-12.100686	7.795280	0.136053	23.402870	11.517058	0.000000	3.549563	0.900063	14.065210	10.623188	0.185410	9.193282	-17.038545	0.000000	0.139729	-0.198635	0.241594	0.259492	-0.264185	0.256694	0.229562	-0.482962	0.256694	0.159697	-0.482962	0.211395	0.129753	-0.405057	0.196295	0.079841	-0.307686	0.181196	0.998074	-2.247002	1.343674	0.000000	0.000000	26.776507	-2.396787	-12.598727	9.063671	-5.424055	43.152688	49.593917	43.247883	-5.072147	20.398047	19.308894	-2.541005	56.253491	43.296082	75.945102	-3.465821	0.861694
0.016949	-2.059644	-4.420607	89.660936	0.199861	0.791162	0.627357	2.040980	-3.169305	-12.116837	8.388675	0.146410	23.617956	12.545537	0.000000	3.839459	0.893939	12.840265	10.620092	0.185356	9.733596	-16.833352	0.000000	0.153597	-0.190647	0.435392	0.285246	-0.253560	0.462604	0.252345	-0.463538	0.462604	0.175547	-0.463538	0.380968	0.142631	-0.388767	0.353756	0.087766	-0.295312	0.326544	1.097131	-2.156634	2.421518	0.000000	0.000000	26.802051	-3.596261	-13.711828	8.600755	-5.686686	42.032052	50.532755	51.339125	-3.290652	18.440297	19.826561	-3.652832	58.295269	44.568588	76.095149	-2.012494	0.524426
0.033898	-2.089713	-4.632004	88.954444	0.200457	0.790515	0.629162	2.730345	-3.263477	-12.123161	8.927161	0.155808	23.798943	13.436812	0.000000	4.115712	0.915821	11.716156	10.607135	0.185129	10.208494	-16.646902	0.000000	0.168917	-0.185742	0.597889	0.313696	-0.247037	0.635257	0.277514	-0.451614	0.635257	0.193056	-0.451614	0.523152	0.156857	-0.378766	0.485784	0.096519	-0.287715	0.448416	1.206560	-2.101155	3.325277	0.000000	0.000000	26.847973	-4.530796	-14.543333	8.229742	-5.935506	41.155720	51.356333	58.246497	-1.726435	16.748974	20.182425	-4.550710	59.754532	45.687969	76.145215	-0.808012	0.390303
0.050847	-2.147228	-4.838966	88.318488	0.200968	0.789917	0.630715	3.366881	-3.378019	-12.120491	9.412905	0.164286	23.948667	14.199998	0.000000	4.377440	0.962363	10.691389	10.585341	0.184749	10.619807	-16.479971	0.000000	0.185353	-0.183603	0.731556	0.344220	-0.244192	0.777279	0.304517	-0.446413	0.777279	0.211840	-0.446413	0.640112	0.172119	-0.374404	0.594390	0.105911	-0.284401	0.548667	1.323960	-2.076956	4.068697	0.000000	0.000000	26.911144	-5.227001	-15.122418	7.942084	-6.169665	40.500908	52.071138	64.060463	-0.368184	15.305533	20.392282	-5.254188	60.694073	46.662607	76.103590	0.167274	0.433819
0.067797	-2.228192	-5.039893	87.750272	0.201398	0.789366	0.632035	3.951042	-3.509428	-12.109662	9.848073	0.171881	24.069967	14.844215	0.000000	4.623764	1.030218	9.764470	10.555730	0.184232	10.969364	-16.333333	0.000000	0.202569	-0.183910	0.838867	0.376192	-0.244600	0.891296	0.332801	-0.447158	0.891296	0.231517	-0.447158	0.734008	0.188106	-0.375029	0.681579	0.115748	-0.284876	0.629150	1.446933	-2.080424	4.665526	0.000000	0.000000	26.988438	-5.711482	-15.478261	7.729230	-6.388313	40.044832	52.683656	68.871485	0.795409	14.091431	20.471928	-5.782814	61.176689	47.500883	75.978565	0.933010	0.629467
0.084746	-2.328610	-5.233187	87.247000	0.201752	0.788863	0.633139	4.483279	-3.654204	-12.091508	10.234832	0.178632	24.165680	15.378579	0.000000	4.853801	1.116039	8.933905	10.519325	0.183597	11.258996	-16.207762	0.000000	0.220230	-0.186343	0.922291	0.408989	-0.247836	0.979935	0.361816	-0.453074	0.979935	0.251701	-0.453074	0.807005	0.204505	-0.379991	0.749362	0.125839	-0.288645	0.691719	1.573080	-2.107949	5.129508	0.000000	0.000000	27.076726	-6.010849	-15.640038	7.582631	-6.590600	39.764709	53.200372	72.770026	1.775656	13.088124	20.437160	-6.156136	61.265173	48.211178	75.778429	1.508846	0.951740
